<svg id="Layer_1" data-name="Layer 1" xmlns="http://www.w3.org/2000/svg" viewBox="0 0 798.49 216.68"><defs><style>.cls-1,.cls-10,.cls-11,.cls-12,.cls-13,.cls-2,.cls-4,.cls-5,.cls-6,.cls-7,.cls-8,.cls-9{fill:none;stroke:#ccc;stroke-width:0.25px;}.cls-1,.cls-10,.cls-12,.cls-2,.cls-6,.cls-8{stroke-linecap:round;stroke-linejoin:round;}.cls-2,.cls-5{stroke-dasharray:11.49 11.49;}.cls-3{fill:#4c72b0;}.cls-11,.cls-13,.cls-4,.cls-5,.cls-7,.cls-9{stroke-linecap:square;stroke-miterlimit:10;}.cls-6,.cls-7{stroke-dasharray:11.43 11.43;}.cls-8,.cls-9{stroke-dasharray:11.79 11.79;}.cls-10,.cls-11{stroke-dasharray:12.52 12.52;}.cls-12,.cls-13{stroke-dasharray:12.02 12.02;}.cls-14{fill:#fff;}.cls-15{fill:#cf142b;}.cls-16{fill:#00247d;}.cls-17{fill:#d00;}.cls-18{fill:#ffce00;}.cls-19{fill:#ed2939;}.cls-20{fill:#002395;}.cls-21{fill:#21468b;}.cls-22{fill:#ae1c28;}.cls-23{fill:#009b48;}.cls-24{fill:#ff7900;}.cls-25{font-size:5.5px;}.cls-25,.cls-30,.cls-33{font-family:Helvetica, Helvetica;}.cls-26{letter-spacing:-0.07em;}.cls-27{letter-spacing:9.44em;}.cls-28{letter-spacing:-0.07em;}.cls-29{letter-spacing:9.44em;}.cls-30{font-size:4.06px;}.cls-31{letter-spacing:-0.07em;}.cls-32{letter-spacing:9.44em;}.cls-33{font-size:4.83px;}</style></defs><title>lobby_total</title><line class="cls-1" x1="332" y1="155.95" x2="338" y2="155.95"/><line class="cls-2" x1="349.49" y1="155.95" x2="458.61" y2="155.95"/><line class="cls-1" x1="464.36" y1="155.95" x2="470.36" y2="155.95"/><line class="cls-1" x1="332" y1="136.79" x2="338" y2="136.79"/><line class="cls-2" x1="349.49" y1="136.79" x2="458.61" y2="136.79"/><line class="cls-1" x1="464.36" y1="136.79" x2="470.36" y2="136.79"/><line class="cls-1" x1="332" y1="117.63" x2="338" y2="117.63"/><line class="cls-2" x1="349.49" y1="117.63" x2="458.61" y2="117.63"/><line class="cls-1" x1="464.36" y1="117.63" x2="470.36" y2="117.63"/><line class="cls-1" x1="332" y1="98.47" x2="338" y2="98.47"/><line class="cls-2" x1="349.49" y1="98.47" x2="458.61" y2="98.47"/><line class="cls-1" x1="464.36" y1="98.47" x2="470.36" y2="98.47"/><line class="cls-1" x1="332" y1="79.31" x2="338" y2="79.31"/><line class="cls-2" x1="349.49" y1="79.31" x2="458.61" y2="79.31"/><line class="cls-1" x1="464.36" y1="79.31" x2="470.36" y2="79.31"/><line class="cls-1" x1="332" y1="60.15" x2="338" y2="60.15"/><line class="cls-2" x1="349.49" y1="60.15" x2="458.61" y2="60.15"/><line class="cls-1" x1="464.36" y1="60.15" x2="470.36" y2="60.15"/><line class="cls-1" x1="332" y1="41" x2="338" y2="41"/><line class="cls-2" x1="349.49" y1="41" x2="458.61" y2="41"/><line class="cls-1" x1="464.36" y1="41" x2="470.36" y2="41"/><line class="cls-1" x1="332" y1="21.84" x2="338" y2="21.84"/><line class="cls-2" x1="349.49" y1="21.84" x2="458.61" y2="21.84"/><line class="cls-1" x1="464.36" y1="21.84" x2="470.36" y2="21.84"/><line class="cls-1" x1="332" y1="2.68" x2="338" y2="2.68"/><line class="cls-2" x1="349.49" y1="2.68" x2="458.61" y2="2.68"/><line class="cls-1" x1="464.36" y1="2.68" x2="470.36" y2="2.68"/><rect class="cls-3" x="335.46" y="153.94" width="6.92" height="2.01"/><rect class="cls-3" x="349.29" y="147.04" width="6.92" height="8.91"/><rect class="cls-3" x="363.13" y="145.07" width="6.92" height="10.88"/><rect class="cls-3" x="376.97" y="136.37" width="6.92" height="19.58"/><rect class="cls-3" x="390.8" y="130.66" width="6.92" height="25.29"/><rect class="cls-3" x="404.64" y="125.09" width="6.92" height="30.87"/><rect class="cls-3" x="418.47" y="110.24" width="6.92" height="45.71"/><rect class="cls-3" x="432.31" y="96.06" width="6.92" height="59.89"/><rect class="cls-3" x="446.15" y="75.04" width="6.92" height="80.91"/><rect class="cls-3" x="459.98" y="62.68" width="6.92" height="93.27"/><line class="cls-4" x1="332" y1="155.95" x2="338" y2="155.95"/><line class="cls-5" x1="349.49" y1="155.95" x2="458.61" y2="155.95"/><line class="cls-4" x1="464.36" y1="155.95" x2="470.36" y2="155.95"/><line class="cls-4" x1="332" y1="2.68" x2="338" y2="2.68"/><line class="cls-5" x1="349.49" y1="2.68" x2="458.61" y2="2.68"/><line class="cls-4" x1="464.36" y1="2.68" x2="470.36" y2="2.68"/><line class="cls-1" x1="179" y1="159.93" x2="185" y2="159.93"/><line class="cls-6" x1="196.43" y1="159.93" x2="304.99" y2="159.93"/><line class="cls-1" x1="310.7" y1="159.93" x2="316.7" y2="159.93"/><line class="cls-1" x1="179" y1="140.27" x2="185" y2="140.27"/><line class="cls-6" x1="196.43" y1="140.27" x2="304.99" y2="140.27"/><line class="cls-1" x1="310.7" y1="140.27" x2="316.7" y2="140.27"/><line class="cls-1" x1="179" y1="120.61" x2="185" y2="120.61"/><line class="cls-6" x1="196.43" y1="120.61" x2="304.99" y2="120.61"/><line class="cls-1" x1="310.7" y1="120.61" x2="316.7" y2="120.61"/><line class="cls-1" x1="179" y1="100.96" x2="185" y2="100.96"/><line class="cls-6" x1="196.43" y1="100.96" x2="304.99" y2="100.96"/><line class="cls-1" x1="310.7" y1="100.96" x2="316.7" y2="100.96"/><line class="cls-1" x1="179" y1="81.3" x2="185" y2="81.3"/><line class="cls-6" x1="196.43" y1="81.3" x2="304.99" y2="81.3"/><line class="cls-1" x1="310.7" y1="81.3" x2="316.7" y2="81.3"/><line class="cls-1" x1="179" y1="61.64" x2="185" y2="61.64"/><line class="cls-6" x1="196.43" y1="61.64" x2="304.99" y2="61.64"/><line class="cls-1" x1="310.7" y1="61.64" x2="316.7" y2="61.64"/><line class="cls-1" x1="179" y1="41.99" x2="185" y2="41.99"/><line class="cls-6" x1="196.43" y1="41.99" x2="304.99" y2="41.99"/><line class="cls-1" x1="310.7" y1="41.99" x2="316.7" y2="41.99"/><line class="cls-1" x1="179" y1="22.33" x2="185" y2="22.33"/><line class="cls-6" x1="196.43" y1="22.33" x2="304.99" y2="22.33"/><line class="cls-1" x1="310.7" y1="22.33" x2="316.7" y2="22.33"/><line class="cls-1" x1="179" y1="2.68" x2="185" y2="2.68"/><line class="cls-6" x1="196.43" y1="2.68" x2="304.99" y2="2.68"/><line class="cls-1" x1="310.7" y1="2.68" x2="316.7" y2="2.68"/><rect class="cls-3" x="182.44" y="149.68" width="6.88" height="10.24"/><rect class="cls-3" x="196.21" y="141.27" width="6.88" height="18.65"/><rect class="cls-3" x="209.98" y="134.41" width="6.88" height="25.51"/><rect class="cls-3" x="223.75" y="121.01" width="6.88" height="38.92"/><rect class="cls-3" x="237.52" y="114.01" width="6.89" height="45.92"/><rect class="cls-3" x="251.29" y="106.58" width="6.89" height="53.35"/><rect class="cls-3" x="265.06" y="97.42" width="6.89" height="62.51"/><rect class="cls-3" x="278.83" y="82.13" width="6.88" height="77.8"/><rect class="cls-3" x="292.6" y="56.83" width="6.89" height="103.1"/><rect class="cls-3" x="306.37" y="38.67" width="6.88" height="121.26"/><line class="cls-4" x1="179" y1="159.93" x2="185" y2="159.93"/><line class="cls-7" x1="196.43" y1="159.93" x2="304.99" y2="159.93"/><line class="cls-4" x1="310.7" y1="159.93" x2="316.7" y2="159.93"/><line class="cls-4" x1="179" y1="2.68" x2="185" y2="2.68"/><line class="cls-7" x1="196.43" y1="2.68" x2="304.99" y2="2.68"/><line class="cls-4" x1="310.7" y1="2.68" x2="316.7" y2="2.68"/><line class="cls-1" x1="656.93" y1="155.95" x2="662.93" y2="155.95"/><line class="cls-8" x1="674.72" y1="155.95" x2="763.11" y2="155.95"/><line class="cls-1" x1="769" y1="155.95" x2="775" y2="155.95"/><line class="cls-1" x1="656.93" y1="136.79" x2="662.93" y2="136.79"/><line class="cls-8" x1="674.72" y1="136.79" x2="763.11" y2="136.79"/><line class="cls-1" x1="769" y1="136.79" x2="775" y2="136.79"/><line class="cls-1" x1="656.93" y1="117.63" x2="662.93" y2="117.63"/><line class="cls-8" x1="674.72" y1="117.63" x2="763.11" y2="117.63"/><line class="cls-1" x1="769" y1="117.63" x2="775" y2="117.63"/><line class="cls-1" x1="656.93" y1="98.47" x2="662.93" y2="98.47"/><line class="cls-8" x1="674.72" y1="98.47" x2="763.11" y2="98.47"/><line class="cls-1" x1="769" y1="98.47" x2="775" y2="98.47"/><line class="cls-1" x1="656.93" y1="79.31" x2="662.93" y2="79.31"/><line class="cls-8" x1="674.72" y1="79.31" x2="763.11" y2="79.31"/><line class="cls-1" x1="769" y1="79.31" x2="775" y2="79.31"/><line class="cls-1" x1="656.93" y1="60.15" x2="662.93" y2="60.15"/><line class="cls-8" x1="674.72" y1="60.15" x2="763.11" y2="60.15"/><line class="cls-1" x1="769" y1="60.15" x2="775" y2="60.15"/><line class="cls-1" x1="656.93" y1="41" x2="662.93" y2="41"/><line class="cls-8" x1="674.72" y1="41" x2="763.11" y2="41"/><line class="cls-1" x1="769" y1="41" x2="775" y2="41"/><line class="cls-1" x1="656.93" y1="21.84" x2="662.93" y2="21.84"/><line class="cls-8" x1="674.72" y1="21.84" x2="763.11" y2="21.84"/><line class="cls-1" x1="769" y1="21.84" x2="775" y2="21.84"/><line class="cls-1" x1="656.93" y1="2.68" x2="662.93" y2="2.68"/><line class="cls-8" x1="674.72" y1="2.68" x2="763.11" y2="2.68"/><line class="cls-1" x1="769" y1="2.68" x2="775" y2="2.68"/><rect class="cls-3" x="659.88" y="155.88" width="5.9" height="0.08"/><rect class="cls-3" x="671.69" y="155.24" width="5.9" height="0.71"/><rect class="cls-3" x="683.5" y="155.01" width="5.9" height="0.94"/><rect class="cls-3" x="695.3" y="154.57" width="5.9" height="1.38"/><rect class="cls-3" x="707.11" y="153.5" width="5.9" height="2.45"/><rect class="cls-3" x="718.92" y="153.37" width="5.9" height="2.59"/><rect class="cls-3" x="730.72" y="151.81" width="5.9" height="4.14"/><rect class="cls-3" x="742.53" y="148.98" width="5.9" height="6.97"/><rect class="cls-3" x="754.34" y="144.97" width="5.9" height="10.98"/><rect class="cls-3" x="766.14" y="142.96" width="5.9" height="12.99"/><line class="cls-4" x1="656.93" y1="155.95" x2="662.93" y2="155.95"/><line class="cls-9" x1="674.72" y1="155.95" x2="763.11" y2="155.95"/><line class="cls-4" x1="769" y1="155.95" x2="775" y2="155.95"/><line class="cls-4" x1="656.93" y1="2.68" x2="662.93" y2="2.68"/><line class="cls-9" x1="674.72" y1="2.68" x2="763.11" y2="2.68"/><line class="cls-4" x1="769" y1="2.68" x2="775" y2="2.68"/><line class="cls-1" x1="13.89" y1="159.32" x2="19.89" y2="159.32"/><line class="cls-10" x1="32.41" y1="159.32" x2="151.34" y2="159.32"/><line class="cls-1" x1="157.6" y1="159.32" x2="163.6" y2="159.32"/><line class="cls-1" x1="13.89" y1="139.78" x2="19.89" y2="139.78"/><line class="cls-10" x1="32.41" y1="139.78" x2="151.34" y2="139.78"/><line class="cls-1" x1="157.6" y1="139.78" x2="163.6" y2="139.78"/><line class="cls-1" x1="13.89" y1="120.24" x2="19.89" y2="120.24"/><line class="cls-10" x1="32.41" y1="120.24" x2="151.34" y2="120.24"/><line class="cls-1" x1="157.6" y1="120.24" x2="163.6" y2="120.24"/><line class="cls-1" x1="13.89" y1="100.7" x2="19.89" y2="100.7"/><line class="cls-10" x1="32.41" y1="100.7" x2="151.34" y2="100.7"/><line class="cls-1" x1="157.6" y1="100.7" x2="163.6" y2="100.7"/><line class="cls-1" x1="13.89" y1="81.15" x2="19.89" y2="81.15"/><line class="cls-10" x1="32.41" y1="81.15" x2="151.34" y2="81.15"/><line class="cls-1" x1="157.6" y1="81.15" x2="163.6" y2="81.15"/><line class="cls-1" x1="13.89" y1="61.61" x2="19.89" y2="61.61"/><line class="cls-10" x1="32.41" y1="61.61" x2="151.34" y2="61.61"/><line class="cls-1" x1="157.6" y1="61.61" x2="163.6" y2="61.61"/><line class="cls-1" x1="13.89" y1="42.07" x2="19.89" y2="42.07"/><line class="cls-10" x1="32.41" y1="42.07" x2="151.34" y2="42.07"/><line class="cls-1" x1="157.6" y1="42.07" x2="163.6" y2="42.07"/><line class="cls-1" x1="13.89" y1="22.53" x2="19.89" y2="22.53"/><line class="cls-10" x1="32.41" y1="22.53" x2="151.34" y2="22.53"/><line class="cls-1" x1="157.6" y1="22.53" x2="163.6" y2="22.53"/><line class="cls-1" x1="13.89" y1="2.99" x2="19.89" y2="2.99"/><line class="cls-10" x1="32.41" y1="2.99" x2="151.34" y2="2.99"/><line class="cls-1" x1="157.6" y1="2.99" x2="163.6" y2="2.99"/><rect class="cls-3" x="17.63" y="156" width="7.49" height="3.32"/><rect class="cls-3" x="32.61" y="150.76" width="7.49" height="8.56"/><rect class="cls-3" x="47.58" y="145.11" width="7.49" height="14.21"/><rect class="cls-3" x="62.55" y="136.53" width="7.49" height="22.79"/><rect class="cls-3" x="77.52" y="127.45" width="7.49" height="31.87"/><rect class="cls-3" x="92.49" y="120.84" width="7.49" height="38.48"/><rect class="cls-3" x="107.46" y="113.79" width="7.49" height="45.53"/><rect class="cls-3" x="122.43" y="88.99" width="7.49" height="70.33"/><rect class="cls-3" x="137.4" y="66.34" width="7.49" height="92.98"/><rect class="cls-3" x="152.37" y="42.17" width="7.49" height="117.15"/><line class="cls-4" x1="13.89" y1="159.32" x2="19.89" y2="159.32"/><line class="cls-11" x1="32.41" y1="159.32" x2="151.34" y2="159.32"/><line class="cls-4" x1="157.6" y1="159.32" x2="163.6" y2="159.32"/><line class="cls-4" x1="13.89" y1="2.99" x2="19.89" y2="2.99"/><line class="cls-11" x1="32.41" y1="2.99" x2="151.34" y2="2.99"/><line class="cls-4" x1="157.6" y1="2.99" x2="163.6" y2="2.99"/><line class="cls-1" x1="508.39" y1="155.95" x2="514.39" y2="155.95"/><line class="cls-12" x1="526.42" y1="155.95" x2="616.59" y2="155.95"/><line class="cls-1" x1="622.6" y1="155.95" x2="628.6" y2="155.95"/><line class="cls-1" x1="508.39" y1="136.79" x2="514.39" y2="136.79"/><line class="cls-12" x1="526.42" y1="136.79" x2="616.59" y2="136.79"/><line class="cls-1" x1="622.6" y1="136.79" x2="628.6" y2="136.79"/><line class="cls-1" x1="508.39" y1="117.63" x2="514.39" y2="117.63"/><line class="cls-12" x1="526.42" y1="117.63" x2="616.59" y2="117.63"/><line class="cls-1" x1="622.6" y1="117.63" x2="628.6" y2="117.63"/><line class="cls-1" x1="508.39" y1="98.47" x2="514.39" y2="98.47"/><line class="cls-12" x1="526.42" y1="98.47" x2="616.59" y2="98.47"/><line class="cls-1" x1="622.6" y1="98.47" x2="628.6" y2="98.47"/><line class="cls-1" x1="508.39" y1="79.31" x2="514.39" y2="79.31"/><line class="cls-12" x1="526.42" y1="79.31" x2="616.59" y2="79.31"/><line class="cls-1" x1="622.6" y1="79.31" x2="628.6" y2="79.31"/><line class="cls-1" x1="508.39" y1="60.15" x2="514.39" y2="60.15"/><line class="cls-12" x1="526.42" y1="60.15" x2="616.59" y2="60.15"/><line class="cls-1" x1="622.6" y1="60.15" x2="628.6" y2="60.15"/><line class="cls-1" x1="508.39" y1="41" x2="514.39" y2="41"/><line class="cls-12" x1="526.42" y1="41" x2="616.59" y2="41"/><line class="cls-1" x1="622.6" y1="41" x2="628.6" y2="41"/><line class="cls-1" x1="508.39" y1="21.84" x2="514.39" y2="21.84"/><line class="cls-12" x1="526.42" y1="21.84" x2="616.59" y2="21.84"/><line class="cls-1" x1="622.6" y1="21.84" x2="628.6" y2="21.84"/><line class="cls-1" x1="508.39" y1="2.68" x2="514.39" y2="2.68"/><line class="cls-12" x1="526.42" y1="2.68" x2="616.59" y2="2.68"/><line class="cls-1" x1="622.6" y1="2.68" x2="628.6" y2="2.68"/><rect class="cls-3" x="511.4" y="154.86" width="6.01" height="1.09"/><rect class="cls-3" x="523.42" y="151.99" width="6.01" height="3.97"/><rect class="cls-3" x="535.44" y="149.76" width="6.01" height="6.19"/><rect class="cls-3" x="547.46" y="147.12" width="6.01" height="8.83"/><rect class="cls-3" x="559.48" y="143.71" width="6.01" height="12.24"/><rect class="cls-3" x="571.5" y="139.21" width="6.01" height="16.75"/><rect class="cls-3" x="583.52" y="135.66" width="6.01" height="20.29"/><rect class="cls-3" x="595.55" y="124.68" width="6.01" height="31.27"/><rect class="cls-3" x="607.57" y="112.44" width="6.01" height="43.51"/><rect class="cls-3" x="619.59" y="101.41" width="6.01" height="54.55"/><line class="cls-4" x1="508.39" y1="155.95" x2="514.39" y2="155.95"/><line class="cls-13" x1="526.42" y1="155.95" x2="616.59" y2="155.95"/><line class="cls-4" x1="622.6" y1="155.95" x2="628.6" y2="155.95"/><line class="cls-4" x1="508.39" y1="2.68" x2="514.39" y2="2.68"/><line class="cls-13" x1="526.42" y1="2.68" x2="616.59" y2="2.68"/><line class="cls-4" x1="622.6" y1="2.68" x2="628.6" y2="2.68"/><rect id="_14" data-name="14" class="cls-14" x="72.64" y="179.11" width="58.33" height="37.56"/><polygon id="_13" data-name="13" class="cls-15" points="98.89 201.63 98.89 216.67 104.72 216.67 104.72 201.63 130.97 201.63 130.97 194.13 104.72 194.13 104.72 179.11 98.89 179.11 98.89 194.13 72.64 194.13 72.64 201.63 98.89 201.63"/><polygon id="_12" data-name="12" class="cls-16" points="106.67 191.27 106.67 179.11 125.55 179.11 106.67 191.27"/><polygon id="_11" data-name="11" class="cls-16" points="106.67 204.51 106.67 216.67 125.55 216.67 106.67 204.51"/><polygon id="_10" data-name="10" class="cls-16" points="96.94 204.51 96.94 216.67 78.06 216.67 96.94 204.51"/><polygon id="_9" data-name="9" class="cls-16" points="96.94 191.27 96.94 179.11 78.06 179.11 96.94 191.27"/><polygon id="_8" data-name="8" class="cls-16" points="72.64 182.6 72.64 191.63 86.67 191.63 72.64 182.6"/><polygon id="_7" data-name="7" class="cls-16" points="130.97 182.6 130.97 191.63 116.95 191.63 130.97 182.6"/><polygon id="_6" data-name="6" class="cls-16" points="130.97 213.18 130.97 204.15 116.95 204.15 130.97 213.18"/><polygon id="_5" data-name="5" class="cls-16" points="72.64 213.18 72.64 204.15 86.67 204.15 72.64 213.18"/><polyline id="_4" data-name="4" class="cls-15" points="130.97 179.11 127.73 179.11 108.32 191.63 111.56 191.63 131 179.11"/><polyline id="_3" data-name="3" class="cls-15" points="95.29 204.15 92.05 204.15 72.64 216.67 75.88 216.67 95.32 204.15"/><polygon id="_2" data-name="2" class="cls-15" points="88.84 191.64 92.08 191.64 72.64 179.11 72.64 181.21 88.84 191.64"/><polygon id="_1" data-name="1" class="cls-15" points="114.76 204.15 111.52 204.15 130.96 216.68 130.96 214.58 114.76 204.15"/><rect id="_3-2" data-name="3" x="227" y="178.98" width="57" height="37.7"/><rect id="_2-2" data-name="2" class="cls-17" x="227" y="191.54" width="57" height="25.13"/><rect id="_1-2" data-name="1" class="cls-18" x="227" y="204.11" width="57" height="12.57"/><rect id="_3-3" data-name="3" class="cls-19" x="382" y="179.18" width="61" height="37.5"/><rect id="_2-3" data-name="2" class="cls-14" x="382" y="179.18" width="40.67" height="37.5"/><rect id="_1-3" data-name="1" class="cls-20" x="382" y="179.18" width="20.33" height="37.5"/><rect id="_3-4" data-name="3" class="cls-21" x="534" y="179.68" width="58" height="37"/><rect id="_2-4" data-name="2" class="cls-14" x="534" y="179.68" width="58" height="24.67"/><rect id="_1-4" data-name="1" class="cls-22" x="534" y="179.68" width="58" height="12.33"/><rect id="_3-5" data-name="3" class="cls-23" x="686.72" y="179.73" width="19.09" height="36.95"/><rect id="_2-5" data-name="2" class="cls-14" x="705.81" y="179.73" width="19.09" height="36.95"/><rect id="_1-5" data-name="1" class="cls-24" x="724.91" y="179.73" width="19.09" height="36.95"/><text class="cls-25" transform="translate(334.39 159.29) scale(0.64 1)"><tspan xml:space="preserve">2008      2009      2010       20</tspan><tspan class="cls-26" x="71.8" y="0">1</tspan><tspan x="74.45" y="0" xml:space="preserve">1      2012       2013      2014       2015      2016      2017 </tspan><tspan class="cls-27" x="210.41" y="0">	</tspan></text><text class="cls-25" transform="translate(509.2 159.29) scale(0.55 1)"><tspan xml:space="preserve">2008      2009      2010       20</tspan><tspan class="cls-28" x="71.77" y="0">1</tspan><tspan x="74.43" y="0" xml:space="preserve">1      2012       2013      2014       2015      2016      2017 </tspan><tspan class="cls-29" x="210.33" y="0">	</tspan></text><text class="cls-30" transform="translate(655.39 162.39) scale(0.73 1)"><tspan xml:space="preserve">2008      2009      2010       20</tspan><tspan class="cls-31" x="53.05" y="0">1</tspan><tspan x="55.01" y="0" xml:space="preserve">1      2012       2013      2014       2015      2016      2017 </tspan><tspan class="cls-32" x="155.45" y="0">	</tspan></text><text class="cls-33" transform="translate(0 4.15) scale(0.91 1)">8000</text><text class="cls-33" transform="translate(0 23.47) scale(0.91 1)">7000</text><text class="cls-33" transform="translate(0 43.73) scale(0.91 1)">6000</text><text class="cls-33" transform="translate(0 121.04) scale(0.91 1)">2000</text><text class="cls-33" transform="translate(0 101.71) scale(0.91 1)">3000</text><text class="cls-33" transform="translate(0 82.38) scale(0.91 1)">4000</text><text class="cls-33" transform="translate(0 63.06) scale(0.91 1)">5000</text><text class="cls-33" transform="translate(5.02 159.69) scale(0.91 1)">0</text><text class="cls-33" transform="translate(0 141.74) scale(0.91 1)">1000</text></svg>